# Blender v3.0.1 OBJ File: 'hole.blend'
# www.blender.org
mtllib untitled.mtl
o Cube
v 0.500000 0.500000 -0.500000
v 0.500000 -0.500000 -0.500000
v 0.500000 0.500000 0.500000
v 0.500000 -0.500000 0.500000
v -0.500000 0.500000 -0.500000
v -0.500000 -0.500000 -0.500000
v -0.500000 0.500000 0.500000
v -0.500000 -0.500000 0.500000
v 0.277785 -0.500000 0.415735
v 0.277785 0.500000 0.415735
v 0.191342 -0.500000 0.461940
v 0.191342 0.500000 0.461940
v -0.500000 0.500000 -0.000000
v 0.097545 -0.500000 0.490393
v 0.097545 0.500000 0.490393
v -0.490393 0.500000 -0.097545
v -0.490393 0.500000 0.097545
v -0.415735 0.500000 0.277785
v -0.415735 0.500000 -0.277785
v -0.461940 0.500000 0.191342
v -0.461940 0.500000 -0.191342
v -0.353553 0.500000 -0.353553
v -0.277785 0.500000 -0.415735
v -0.097545 0.500000 -0.490393
v -0.191342 0.500000 -0.461940
v 0.097545 0.500000 -0.490393
v 0.353553 0.500000 -0.353553
v 0.277785 0.500000 -0.415735
v 0.191342 0.500000 -0.461940
v 0.000000 0.500000 -0.500000
v -0.000000 -0.500000 0.500000
v -0.000000 0.500000 0.500000
v -0.097545 -0.500000 0.490393
v -0.097545 0.500000 0.490393
v -0.353553 0.500000 0.353553
v -0.191342 0.500000 0.461940
v -0.191342 -0.500000 0.461940
v -0.277785 0.500000 0.415735
v 0.415735 0.500000 0.277785
v 0.415735 0.500000 -0.277785
v 0.500000 0.500000 0.000000
v 0.461940 0.500000 0.191342
v 0.490393 0.500000 0.097545
v 0.490393 0.500000 -0.097545
v 0.353553 0.500000 0.353553
v 0.461940 0.500000 -0.191342
v -0.277785 -0.500000 0.415735
v -0.353553 -0.500000 0.353553
v -0.500000 -0.500000 -0.000000
v -0.415735 -0.500000 0.277785
v -0.461940 -0.500000 0.191342
v -0.277785 -0.500000 -0.415735
v -0.097545 -0.500000 -0.490393
v -0.191342 -0.500000 -0.461940
v 0.097545 -0.500000 -0.490393
v 0.277785 -0.500000 -0.415735
v 0.191342 -0.500000 -0.461940
v 0.353553 -0.500000 0.353553
v 0.000000 -0.500000 -0.500000
v 0.415735 -0.500000 0.277785
v 0.415735 -0.500000 -0.277785
v 0.500000 -0.500000 0.000000
v -0.490393 -0.500000 0.097545
v 0.490393 -0.500000 0.097545
v 0.490393 -0.500000 -0.097545
v 0.461940 -0.500000 0.191342
v 0.461940 -0.500000 -0.191342
v 0.353553 -0.500000 -0.353553
v -0.490393 -0.500000 -0.097545
v -0.415735 -0.500000 -0.277785
v -0.461940 -0.500000 -0.191342
v -0.353553 -0.500000 -0.353553
vt 0.875000 0.625000
vt 0.875000 0.750000
vt 0.750000 0.750000
vt 0.774386 0.747598
vt 0.797835 0.740485
vt 0.819446 0.728934
vt 0.838388 0.713388
vt 0.853934 0.694446
vt 0.865485 0.672835
vt 0.872598 0.649386
vt 0.750000 0.500000
vt 0.875000 0.500000
vt 0.872598 0.600614
vt 0.865485 0.577165
vt 0.853934 0.555554
vt 0.838388 0.536612
vt 0.819446 0.521066
vt 0.797835 0.509515
vt 0.774386 0.502402
vt 0.625000 0.625000
vt 0.625000 0.500000
vt 0.725614 0.502402
vt 0.702165 0.509515
vt 0.680554 0.521066
vt 0.661612 0.536612
vt 0.646066 0.555554
vt 0.634515 0.577165
vt 0.627402 0.600614
vt 0.625000 0.750000
vt 0.627402 0.649386
vt 0.634515 0.672835
vt 0.646066 0.694446
vt 0.661612 0.713388
vt 0.680554 0.728934
vt 0.702165 0.740485
vt 0.725614 0.747598
vt 0.625000 1.000000
vt 0.375000 1.000000
vt 0.375000 0.875000
vt 0.625000 0.875000
vt 0.375000 0.750000
vt 0.625000 0.125000
vt 0.625000 0.250000
vt 0.375000 0.250000
vt 0.375000 0.125000
vt 0.375000 0.000000
vt 0.625000 0.000000
vt 0.375000 0.625000
vt 0.375000 0.500000
vt 0.625000 0.375000
vt 0.375000 0.375000
vt 0.000000 0.000000
vt 0.000000 0.000000
vt 0.000000 0.000000
vt 0.000000 0.000000
vt 0.000000 0.000000
vt 0.000000 0.000000
vt 0.000000 0.000000
vt 0.000000 0.000000
vt 0.000000 0.000000
vt 0.000000 0.000000
vt 0.000000 0.000000
vt 0.000000 0.000000
vt 0.000000 0.000000
vt 0.000000 0.000000
vt 0.000000 0.000000
vt 0.000000 0.000000
vt 0.000000 0.000000
vt 0.000000 0.000000
vt 0.000000 0.000000
vt 0.000000 0.000000
vt 0.000000 0.000000
vt 0.000000 0.000000
vt 0.000000 0.000000
vt 0.000000 0.000000
vt 0.000000 0.000000
vt 0.000000 0.000000
vt 0.000000 0.000000
vt 0.000000 0.000000
vt 0.000000 0.000000
vt 0.000000 0.000000
vt 0.000000 0.000000
vt 0.000000 0.000000
vt 0.000000 0.000000
vt 0.000000 0.000000
vt 0.000000 0.000000
vt 0.000000 0.000000
vt 0.000000 0.000000
vt 0.000000 0.000000
vt 0.000000 0.000000
vt 0.000000 0.000000
vt 0.000000 0.000000
vt 0.000000 0.000000
vt 0.000000 0.000000
vt 0.000000 0.000000
vt 0.000000 0.000000
vt 0.000000 0.000000
vt 0.000000 0.000000
vt 0.000000 0.000000
vt 0.000000 0.000000
vt 0.000000 0.000000
vt 0.000000 0.000000
vt 0.000000 0.000000
vt 0.000000 0.000000
vt 0.000000 0.000000
vt 0.000000 0.000000
vt 0.000000 0.000000
vt 0.000000 0.000000
vt 0.000000 0.000000
vt 0.000000 0.000000
vt 0.000000 0.000000
vt 0.000000 0.000000
vt 0.000000 0.000000
vt 0.000000 0.000000
vt 0.000000 0.000000
vn 0.0000 1.0000 -0.0000
vn 0.0000 0.0000 1.0000
vn -1.0000 0.0000 0.0000
vn 1.0000 0.0000 0.0000
vn 0.0000 0.0000 -1.0000
vn -0.0980 0.0000 0.9952
vn -0.2903 0.0000 0.9569
vn -0.4714 0.0000 0.8819
vn -0.6344 0.0000 0.7730
vn -0.7730 0.0000 0.6344
vn -0.8819 0.0000 0.4714
vn -0.9569 0.0000 0.2903
vn -0.9952 0.0000 0.0980
vn -0.9952 0.0000 -0.0980
vn -0.9569 0.0000 -0.2903
vn -0.8819 0.0000 -0.4714
vn -0.7730 0.0000 -0.6344
vn -0.6344 0.0000 -0.7730
vn -0.4714 0.0000 -0.8819
vn -0.2903 0.0000 -0.9569
vn -0.0980 0.0000 -0.9952
vn 0.0980 0.0000 -0.9952
vn 0.2903 0.0000 -0.9569
vn 0.4714 0.0000 -0.8819
vn 0.6344 0.0000 -0.7730
vn 0.7730 0.0000 -0.6344
vn 0.8819 0.0000 -0.4714
vn 0.9569 0.0000 -0.2903
vn 0.9952 0.0000 -0.0980
vn 0.9952 0.0000 0.0980
vn 0.9569 0.0000 0.2903
vn 0.8819 0.0000 0.4714
vn 0.7730 0.0000 0.6344
vn 0.6344 0.0000 0.7730
vn 0.4714 0.0000 0.8819
vn 0.2903 0.0000 0.9569
vn 0.0980 0.0000 0.9952
usemtl Material
s off
f 13/1/1 7/2/1 32/3/1 34/4/1 36/5/1 38/6/1 35/7/1 18/8/1 20/9/1 17/10/1
f 30/11/1 5/12/1 13/1/1 16/13/1 21/14/1 19/15/1 22/16/1 23/17/1 25/18/1 24/19/1
f 41/20/1 1/21/1 30/11/1 26/22/1 29/23/1 28/24/1 27/25/1 40/26/1 46/27/1 44/28/1
f 32/3/1 3/29/1 41/20/1 43/30/1 42/31/1 39/32/1 45/33/1 10/34/1 12/35/1 15/36/1
f 7/37/2 8/38/2 31/39/2 32/40/2
f 31/39/2 4/41/2 3/29/2 32/40/2
f 13/42/3 5/43/3 6/44/3 49/45/3
f 8/46/3 7/47/3 13/42/3 49/45/3
f 3/29/4 4/41/4 62/48/4 41/20/4
f 62/48/4 2/49/4 1/21/4 41/20/4
f 30/50/5 1/21/5 2/49/5 59/51/5
f 6/44/5 5/43/5 30/50/5 59/51/5
f 59/52/6 55/53/6 26/54/6 30/55/6
f 57/56/7 29/57/7 26/54/7 55/53/7
f 56/58/8 28/59/8 29/57/8 57/56/8
f 68/60/9 27/61/9 28/59/9 56/58/9
f 40/62/10 27/61/10 68/60/10 61/63/10
f 46/64/11 40/62/11 61/63/11 67/65/11
f 44/66/12 46/64/12 67/65/12 65/67/12
f 41/68/13 44/66/13 65/67/13 62/69/13
f 62/69/14 64/70/14 43/71/14 41/68/14
f 42/72/15 43/71/15 64/70/15 66/73/15
f 39/74/16 42/72/16 66/73/16 60/75/16
f 45/76/17 39/74/17 60/75/17 58/77/17
f 9/78/18 10/79/18 45/76/18 58/77/18
f 12/80/19 10/79/19 9/78/19 11/81/19
f 15/82/20 12/80/20 11/81/20 14/83/20
f 32/84/21 15/82/21 14/83/21 31/85/21
f 31/85/22 33/86/22 34/87/22 32/84/22
f 36/88/23 34/87/23 33/86/23 37/89/23
f 38/90/24 36/88/24 37/89/24 47/91/24
f 35/92/25 38/90/25 47/91/25 48/93/25
f 50/94/26 18/95/26 35/92/26 48/93/26
f 51/96/27 20/97/27 18/95/27 50/94/27
f 63/98/28 17/99/28 20/97/28 51/96/28
f 13/100/29 17/99/29 63/98/29 49/101/29
f 69/102/30 16/103/30 13/100/30 49/101/30
f 71/104/31 21/105/31 16/103/31 69/102/31
f 70/106/32 19/107/32 21/105/32 71/104/32
f 72/108/33 22/109/33 19/107/33 70/106/33
f 52/110/34 23/111/34 22/109/34 72/108/34
f 54/112/35 25/113/35 23/111/35 52/110/35
f 53/114/36 24/115/36 25/113/36 54/112/36
f 30/55/37 24/115/37 53/114/37 59/52/37
